<?xml version="1.0" encoding="UTF-8"?> <svg xmlns="http://www.w3.org/2000/svg" width="1047.76" height="215.4" viewBox="0 0 1047.76 215.4"><title>dus_net_light-background</title><g id="next_generation_telecom" data-name="next generation telecom" style="isolation: isolate"><g id="net-2" data-name="net"><path d="M1729.63,909.45q-14.85-7.89-33.53-7.89a65,65,0,0,0-26.82,5.52,61.41,61.41,0,0,0-21,15.26V913.4a10.25,10.25,0,0,0-2.76-7.37,9.53,9.53,0,0,0-7.23-2.89A9.91,9.91,0,0,0,1628,913.4V1037a9.54,9.54,0,0,0,2.9,7.23,10.21,10.21,0,0,0,7.36,2.76,9.47,9.47,0,0,0,10-10V959.16a33.9,33.9,0,0,1,6-19.6,41.07,41.07,0,0,1,16.44-13.8,53,53,0,0,1,23.28-5q21,0,34.06,12.23t13,35.64V1037a9.66,9.66,0,0,0,2.9,7.1,10,10,0,0,0,7.36,2.89,9.89,9.89,0,0,0,10-10V968.63q0-21-8.42-36.17A56.63,56.63,0,0,0,1729.63,909.45ZM1886,910.9q-15-9.07-34.45-9.08-20,0-35.64,9.34a65,65,0,0,0-24.46,26q-8.81,16.69-8.81,38,0,21,9.34,37.74a66.54,66.54,0,0,0,25.91,26q16.56,9.33,37.61,9.33a75.33,75.33,0,0,0,25.77-4.86q13.41-4.86,22.09-12.23a8,8,0,0,0,2.89-6,9.49,9.49,0,0,0-3.41-7.1,9.85,9.85,0,0,0-5.79-2.1,11.52,11.52,0,0,0-7.1,2.63,46.29,46.29,0,0,1-15.39,8.28,58.32,58.32,0,0,1-19.06,3.29q-22.1,0-36.82-13.42t-16.84-35h106.26a9.49,9.49,0,0,0,6.83-2.5,8.83,8.83,0,0,0,2.63-6.71q0-20.52-8.28-36.56A61.89,61.89,0,0,0,1886,910.9Zm-83.63,54q2.89-20.25,16-32.61T1851.53,920q19.73,0,32.35,12.36t14.73,32.61Zm203.82,64.7a8.79,8.79,0,0,0-6.83-2.89h-7.11q-12.36,0-20.25-8.55t-7.89-22V926h29.72a9.05,9.05,0,0,0,6.71-2.5,8.4,8.4,0,0,0,2.5-6.18,8.74,8.74,0,0,0-2.5-6.44,9.05,9.05,0,0,0-6.71-2.5h-29.72V867.63a9.89,9.89,0,0,0-10.25-10.25,9.55,9.55,0,0,0-7.24,2.89,10.23,10.23,0,0,0-2.76,7.36V908.4h-17.09a9.05,9.05,0,0,0-6.71,2.5,8.7,8.7,0,0,0-2.5,6.44,8.36,8.36,0,0,0,2.5,6.18,9.05,9.05,0,0,0,6.71,2.5h17.09v70.22a53.63,53.63,0,0,0,6.18,25.91,47,47,0,0,0,42.21,24.85h5.53a11.24,11.24,0,0,0,7.89-2.89,9.28,9.28,0,0,0,3.15-7.1A10.56,10.56,0,0,0,2006.17,1029.64Z" transform="translate(-961.04 -841.6)" style="fill-rule: evenodd"></path></g><g id="dus-2" data-name="dus"><path d="M1107,851.85a10.25,10.25,0,0,0-2.76-7.36,9.55,9.55,0,0,0-7.24-2.89,9.89,9.89,0,0,0-10.25,10.25v77.06a65.11,65.11,0,0,0-23.41-19.85,68,68,0,0,0-31.3-7.24,69.26,69.26,0,0,0-61.67,35.9A74.92,74.92,0,0,0,961,974.94a74,74,0,0,0,9.6,37.34,69.85,69.85,0,0,0,26.3,26.44,77,77,0,0,0,74.43,0,69.85,69.85,0,0,0,26.3-26.44,74,74,0,0,0,9.6-37.34V913.13a8.11,8.11,0,0,0-.26-2.36Zm-26.7,151.1a53,53,0,0,1-92.57,0,59.77,59.77,0,0,1,0-56,50.77,50.77,0,0,1,19.2-19.59,53.14,53.14,0,0,1,27.22-7.11q20.77,0,35.37,13.15t17.23,33.67a2.86,2.86,0,0,0,.26,1.31,60.42,60.42,0,0,1,.26,6.58A56.45,56.45,0,0,1,1080.31,1003Zm179-99.81a9.47,9.47,0,0,0-10,10V991a33.84,33.84,0,0,1-6,19.59,41.08,41.08,0,0,1-16.44,13.81,53.05,53.05,0,0,1-23.27,5q-21,0-34.06-12.23t-13-35.64V913.13a9.66,9.66,0,0,0-2.9-7.1,10,10,0,0,0-7.36-2.89,9.87,9.87,0,0,0-10,10v68.38q0,21,8.41,36.17a56.57,56.57,0,0,0,23.28,23q14.85,7.89,33.53,7.89a64.94,64.94,0,0,0,26.83-5.53,61.31,61.31,0,0,0,21-15.25v8.94a10.24,10.24,0,0,0,2.76,7.37,9.53,9.53,0,0,0,7.23,2.89,9.91,9.91,0,0,0,10.26-10.26V913.13a9.54,9.54,0,0,0-2.9-7.23A10.23,10.23,0,0,0,1259.28,903.14Zm136.49,77.19q-12.09-10.65-40.23-15.39-20.79-3.41-28.93-9.07t-8.16-15.12q0-8.94,8.68-14.86t23.15-5.92q22.35,0,35.24,14.73a12,12,0,0,0,9.2,3.94,8.43,8.43,0,0,0,5-1.31,8,8,0,0,0,4.21-7.1,12,12,0,0,0-2.11-6.05,53.26,53.26,0,0,0-20.77-16.44q-12.9-5.91-30.25-5.92-22.35,0-37.21,10.52t-14.86,29.72q0,14.73,12.75,25.12t38.53,14.6q20,3.15,29.2,9.46t9.2,15.78q-.27,10.26-9.47,16.57t-27.61,6.32a64.31,64.31,0,0,1-23-4,40.36,40.36,0,0,1-16.71-11.31A9.7,9.7,0,0,0,1304,1011a10.83,10.83,0,0,0-6.58,2.37q-4.2,3.42-4.2,7.89a9.61,9.61,0,0,0,2.63,6q9.2,10,24.19,15.51a89.82,89.82,0,0,0,31.3,5.52,76.59,76.59,0,0,0,29.19-5.26q12.88-5.25,20.12-14.72a34.61,34.61,0,0,0,7.23-21.57Q1407.87,991,1395.77,980.33Z" transform="translate(-961.04 -841.6)" style="fill: #eb311b;fill-rule: evenodd"></path></g><g id="Ellipse_2-2" data-name="Ellipse 2"><path d="M1474.5,888a15.5,15.5,0,1,0,15.5,15.5A15.5,15.5,0,0,0,1474.5,888Zm46,0a15.5,15.5,0,1,0,15.5,15.5A15.5,15.5,0,0,0,1520.5,888Zm46,31a15.5,15.5,0,1,0-15.5-15.5A15.5,15.5,0,0,0,1566.5,919Zm-92,15a15.5,15.5,0,1,0,15.5,15.5A15.5,15.5,0,0,0,1474.5,934Zm46,0a15.5,15.5,0,1,0,15.5,15.5A15.5,15.5,0,0,0,1520.5,934Zm46,0a15.5,15.5,0,1,0,15.5,15.5A15.5,15.5,0,0,0,1566.5,934Zm-92,46a15.5,15.5,0,1,0,15.5,15.5A15.5,15.5,0,0,0,1474.5,980Zm46,0a15.5,15.5,0,1,0,15.5,15.5A15.5,15.5,0,0,0,1520.5,980Zm46,0a15.5,15.5,0,1,0,15.5,15.5A15.5,15.5,0,0,0,1566.5,980Z" transform="translate(-961.04 -841.6)" style="fill: #eb311b;fill-rule: evenodd"></path></g><g id="Ellipse_1-2" data-name="Ellipse 1"><circle cx="559.46" cy="199.9" r="15.5"></circle></g></g></svg> 