<svg width="125" height="40" viewBox="0 0 125 40" fill="none" xmlns="http://www.w3.org/2000/svg">
<path d="M116.104 17.8933C116.474 17.8933 116.774 17.5935 116.774 17.2228V14.8982C116.774 14.7203 116.704 14.5498 116.578 14.424C116.452 14.2983 116.281 14.2276 116.104 14.2276H112.153V10.0254C112.153 9.84758 112.083 9.67702 111.957 9.55126C111.831 9.42551 111.661 9.35486 111.483 9.35486H109.158C108.98 9.35486 108.81 9.42551 108.684 9.55126C108.558 9.67702 108.488 9.84758 108.488 10.0254V24.9468C108.488 28.1055 111.354 30.6656 114.889 30.6656H115.875C116.371 30.6656 116.774 30.3058 116.774 29.8621V28.1949C116.774 27.7512 116.371 27.3913 115.875 27.3913H114.889C113.378 27.3913 112.153 26.2966 112.153 24.9468V17.8933H116.104ZM104.923 30.6656H95.6226C94.8254 30.6658 94.036 30.5089 93.2994 30.2039C92.5628 29.8989 91.8936 29.4518 91.3298 28.8882C90.766 28.3245 90.3188 27.6553 90.0137 26.9188C89.7086 26.1823 89.5516 25.3929 89.5516 24.5957V20.2278C89.5516 19.441 89.7065 18.6619 90.0076 17.9349C90.3087 17.208 90.7501 16.5475 91.3064 15.9912C91.8628 15.4348 92.5233 14.9935 93.2502 14.6924C93.9771 14.3913 94.7562 14.2363 95.543 14.2363H99.6373C100.42 14.2363 101.194 14.3904 101.917 14.6899C102.64 14.9893 103.296 15.4281 103.85 15.9813C104.403 16.5346 104.841 17.1914 105.141 17.9142C105.44 18.637 105.594 19.4117 105.594 20.194L105.595 24.4703H93.2326C93.3088 25.1651 93.6386 25.8073 94.1589 26.2741C94.6791 26.7408 95.3533 26.9992 96.0522 26.9999H104.923C105.294 26.9999 105.595 27.2997 105.595 27.6705V29.9951C105.595 30.0832 105.578 30.1705 105.544 30.2519C105.51 30.3334 105.46 30.4073 105.398 30.4696C105.336 30.5319 105.262 30.5813 105.18 30.6149C105.099 30.6485 105.011 30.6658 104.923 30.6656ZM93.2304 20.8046H101.917C101.925 20.8046 101.93 20.798 101.93 20.7926V20.194C101.93 19.5861 101.689 19.0032 101.259 18.5734C100.829 18.1435 100.246 17.9021 99.6383 17.9021H95.5441C94.9273 17.9021 94.3357 18.1471 93.8996 18.5833C93.4634 19.0194 93.2184 19.611 93.2184 20.2278V20.7926C93.2173 20.798 93.2228 20.8046 93.2304 20.8046ZM86.0657 30.6656H83.7411C83.5633 30.6656 83.3927 30.595 83.267 30.4692C83.1412 30.3435 83.0706 30.1729 83.0706 29.9951V20.194C83.0706 19.5861 82.8291 19.0032 82.3993 18.5734C81.9695 18.1435 81.3865 17.9021 80.7787 17.9021H74.3576V29.9962C74.3576 30.3669 74.0578 30.6667 73.6871 30.6667H71.3624C71.1846 30.6667 71.014 30.5961 70.8883 30.4703C70.7625 30.3446 70.6919 30.174 70.6919 29.9962V14.2363H80.7787C82.3587 14.2363 83.8741 14.864 84.9913 15.9813C86.1086 17.0986 86.7363 18.6139 86.7363 20.194V29.9951C86.7365 30.0832 86.7192 30.1704 86.6856 30.2519C86.6519 30.3333 86.6025 30.4073 86.5402 30.4696C86.4779 30.5319 86.4039 30.5812 86.3225 30.6149C86.2411 30.6485 86.1538 30.6658 86.0657 30.6656ZM63.4302 30.6656H54.6889C54.5111 30.6656 54.3405 30.595 54.2147 30.4692C54.089 30.3435 54.0183 30.1729 54.0183 29.9951V27.6705C54.0183 27.2997 54.3182 26.9999 54.6889 26.9999H63.4585C63.5991 27.0021 63.7384 26.9725 63.866 26.9134C63.9937 26.8543 64.1063 26.7673 64.1956 26.6586C65.0821 25.5367 64.2959 24.2839 63.2208 24.2839H57.1934C55.3464 24.2839 53.6443 23.224 52.8855 21.5384C51.2194 17.841 53.8973 14.2352 57.4017 14.2352H66.2237C66.5944 14.2352 66.8942 14.5351 66.8942 14.9058V17.2304C66.8942 17.6011 66.5944 17.901 66.2237 17.901H57.164C57.0232 17.899 56.8838 17.9286 56.7561 17.9876C56.6283 18.0467 56.5154 18.1337 56.4258 18.2423C55.5405 19.3642 56.3266 20.617 57.4017 20.617H63.2208C66.7241 20.617 69.4031 24.2239 67.737 27.9202C66.9793 29.6058 65.2772 30.6656 63.4302 30.6656ZM49.9535 30.6656H39.8668C38.287 30.6656 36.7719 30.0381 35.6548 28.921C34.5378 27.8039 33.9102 26.2889 33.9102 24.7091V14.9069C33.9102 14.5362 34.2101 14.2363 34.5808 14.2363H36.9054C37.2761 14.2363 37.5759 14.5362 37.5759 14.9069V24.7091C37.5759 25.9739 38.602 26.9999 39.8668 26.9999H46.2878V14.9069C46.2878 14.5362 46.5887 14.2363 46.9594 14.2363H49.283C49.6537 14.2363 49.9535 14.5362 49.9535 14.9069V30.6656ZM28.0987 9.35486C27.9208 9.35486 27.7503 9.42551 27.6245 9.55126C27.4988 9.67702 27.4281 9.84758 27.4281 10.0254V29.9951C27.4281 30.3658 27.728 30.6656 28.0987 30.6656H30.4222C30.7929 30.6656 31.0938 30.3658 31.0938 29.9951V10.0254C31.0938 9.93727 31.0765 9.84998 31.0427 9.76856C31.0089 9.68713 30.9594 9.61316 30.8971 9.55088C30.8347 9.48859 30.7606 9.43922 30.6791 9.40559C30.5977 9.37195 30.5103 9.35472 30.4222 9.35486H28.0987ZM18.3205 9.35486H8.41251C8.23466 9.35486 8.0641 9.42551 7.93835 9.55126C7.81259 9.67702 7.74194 9.84758 7.74194 10.0254V16.2458C7.74194 16.6166 8.04179 16.9164 8.41251 16.9164H10.7371C11.1078 16.9164 11.4077 16.6166 11.4077 16.2458V13.0195H18.3216C19.028 13.0195 19.7055 13.3001 20.2051 13.7997C20.7046 14.2992 20.9853 14.9768 20.9853 15.6832V18.1201C20.9853 18.4699 20.9164 18.8163 20.7825 19.1395C20.6486 19.4627 20.4524 19.7563 20.2051 20.0037C19.9577 20.251 19.6641 20.4472 19.3409 20.5811C19.0177 20.715 18.6714 20.7838 18.3216 20.7838H7.74194V29.9951C7.74194 30.3658 8.04179 30.6656 8.41251 30.6656H10.7371C11.1078 30.6656 11.4077 30.3658 11.4077 29.9951V24.4485H18.3216C19.1526 24.4486 19.9756 24.2851 20.7435 23.9671C21.5113 23.6491 22.209 23.183 22.7967 22.5953C23.3844 22.0076 23.8505 21.3099 24.1685 20.5421C24.4865 19.7742 24.6501 18.9512 24.6499 18.1201V15.6832C24.6499 14.8521 24.4862 14.0291 24.1681 13.2612C23.85 12.4933 23.3838 11.7957 22.796 11.208C22.2082 10.6204 21.5105 10.1542 20.7426 9.83626C19.9746 9.5183 19.1516 9.35472 18.3205 9.35486Z" fill="#141E28"/>
</svg>
